<?xml version="1.0" encoding="utf-8"?>
<!DOCTYPE svg PUBLIC "-//W3C//DTD SVG 1.1//EN" "http://www.w3.org/Graphics/SVG/1.1/DTD/svg11.dtd">
<svg version="1.1" id="Layer_1" xmlns="http://www.w3.org/2000/svg" xmlns:xlink="http://www.w3.org/1999/xlink" x="0px" y="0px"
     width="300px" height="300px" viewBox="0 0 300 300" enable-background="new 0 0 300 300" xml:space="preserve">
    <path fill="#FFFFFF" d="M101.521,148.479c0-6.933,1.225-13.785,3.68-20.56c2.453-6.772,6-12.825,10.641-18.16
        c4.64-5.333,10.319-9.653,17.04-12.96c6.72-3.305,14.399-4.96,23.039-4.96c10.133,0,18.905,2.295,26.32,6.88
        c7.413,4.587,12.88,10.56,16.4,17.92l-16.96,11.68c-1.28-3.2-2.936-5.893-4.96-8.08c-2.027-2.185-4.24-3.92-6.641-5.2
        c-2.399-1.28-4.88-2.212-7.439-2.8c-2.561-0.585-5.016-0.88-7.36-0.88c-5.228,0-9.814,1.12-13.76,3.36
        c-3.947,2.24-7.228,5.147-9.84,8.72c-2.615,3.575-4.588,7.627-5.92,12.16c-1.335,4.535-2,9.04-2,13.52
        c0,5.015,0.772,9.839,2.319,14.48c1.545,4.641,3.732,8.721,6.561,12.24c2.825,3.52,6.212,6.348,10.16,8.48
        c3.944,2.135,8.265,3.199,12.96,3.199c2.452,0,4.96-0.32,7.52-0.96c2.561-0.64,5.04-1.652,7.44-3.04
        c2.399-1.385,4.612-3.172,6.64-5.359c2.025-2.186,3.68-4.826,4.96-7.92l18.08,10.399c-1.707,4.268-4.188,8.027-7.44,11.28
        c-3.255,3.255-6.96,6-11.119,8.24c-4.16,2.239-8.535,3.947-13.12,5.119c-4.588,1.173-9.12,1.76-13.601,1.76
        c-7.895,0-15.12-1.705-21.68-5.119c-6.56-3.412-12.215-7.865-16.96-13.36c-4.748-5.493-8.428-11.732-11.04-18.72
        C102.825,162.854,101.521,155.734,101.521,148.479z"/>
    <path fill="none" stroke="#FFFFFF" stroke-width="18" stroke-miterlimit="10" d="M281.822,141.514L158.485,18.177
        c-4.686-4.686-12.284-4.686-16.971,0L18.178,141.514c-4.687,4.686-4.686,12.283,0,16.971l123.337,123.336
        c4.687,4.686,12.285,4.686,16.971,0l123.337-123.336C286.508,153.797,286.509,146.201,281.822,141.514z"/>
</svg>
